# xmcd
#
# Track frame offsets:
# 151
# 13886
# 27621
# 48576
# 59827
# 78686
# 91541
# 107632
# 123511
# 136284
#
# Disc length: 1976 seconds
#
#
# Revision: 0
# Processed by: cddbd v1.5.1PL2 Copyright (c) Steve Scherf et al.
# Submitted via: FreeRIP 2.943 
#
DISCID=8b07b60a
DTITLE=T. G. Sheppard Slow burn - Slow burn
DYEAR=1983
DGENRE=country
TTITLE0=Somewhere down the line
TTITLE1=Don't fight the night
TTITLE2=She put the sad in all his songs
TTITLE3=Baby, I'm a want you
TTITLE4=Slow burn
TTITLE5=Blank check
TTITLE6=Arthur and alice
TTITLE7=How lucky we are
TTITLE8=First things first
TTITLE9=It's a bad night for good girls
EXTD=
EXTT0=
EXTT1=
EXTT2=
EXTT3=
EXTT4=
EXTT5=
EXTT6=
EXTT7=
EXTT8=
EXTT9=
PLAYORDER=
